<svg width="375" height="92" viewBox="0 0 375 92" fill="none" xmlns="http://www.w3.org/2000/svg">
<path d="M23.8 91.48C19.384 91.48 15.384 90.392 11.8 88.216C8.28 86.04 5.496 82.904 3.448 78.808C1.4 74.648 0.376 69.752 0.376 64.12C0.376 54.392 2.456 45.4 6.616 37.144C10.776 28.824 16.92 22.168 25.048 17.176C33.176 12.12 42.936 9.592 54.328 9.592C57.272 9.592 60.408 9.816 63.736 10.264C67.128 10.712 70.2 11.384 72.952 12.28C74.744 12.792 75.64 14.072 75.64 16.12C75.64 17.784 75 19.352 73.72 20.824C72.504 22.296 71.064 23.032 69.4 23.032C68.888 23.032 68.504 23 68.248 22.936C64.92 22.168 62.072 21.624 59.704 21.304C57.336 20.92 54.84 20.728 52.216 20.728C44.088 20.728 37.176 22.712 31.48 26.68C25.784 30.584 21.528 35.768 18.712 42.232C15.896 48.696 14.488 55.672 14.488 63.16C14.488 68.6 15.544 72.824 17.656 75.832C19.832 78.776 22.648 80.248 26.104 80.248C30.008 80.248 33.432 78.648 36.376 75.448C39.32 72.248 42.008 67.064 44.44 59.896C46.872 52.728 49.272 43 51.64 30.712C52.024 28.92 52.792 27.704 53.944 27.064C55.096 26.424 56.632 26.104 58.552 26.104C63.096 26.104 65.368 27.576 65.368 30.52C65.368 31.032 65.272 31.672 65.08 32.44C63.416 38.648 61.88 45.528 60.472 53.08C59.128 60.568 58.456 66.264 58.456 70.168C58.456 73.624 58.968 76.152 59.992 77.752C61.016 79.288 62.584 80.056 64.696 80.056C66.744 80.056 68.696 79.384 70.552 78.04C72.408 76.632 74.744 74.264 77.56 70.936C78.328 70.04 79.192 69.592 80.152 69.592C80.984 69.592 81.624 69.976 82.072 70.744C82.584 71.512 82.84 72.568 82.84 73.912C82.84 76.408 82.232 78.392 81.016 79.864C77.88 83.64 74.808 86.52 71.8 88.504C68.792 90.488 65.112 91.48 60.76 91.48C56.28 91.48 52.664 90.2 49.912 87.64C47.16 85.016 45.432 81.336 44.728 76.6C39.992 86.52 33.016 91.48 23.8 91.48ZM87.6528 39.928C84.9648 39.928 82.9488 39.32 81.6048 38.104C80.2608 36.824 79.5888 35.064 79.5888 32.824C79.5888 30.584 80.4528 28.728 82.1808 27.256C83.9728 25.72 86.1808 24.952 88.8048 24.952C91.1728 24.952 93.0928 25.528 94.5648 26.68C96.0368 27.832 96.7728 29.464 96.7728 31.576C96.7728 34.136 95.9408 36.184 94.2768 37.72C92.6128 39.192 90.4048 39.928 87.6528 39.928ZM86.8848 91.48C82.7248 91.48 79.6848 90.008 77.7648 87.064C75.9088 84.12 74.9808 80.216 74.9808 75.352C74.9808 72.472 75.3328 68.792 76.0368 64.312C76.8048 59.768 77.7648 55.544 78.9168 51.64C79.4928 49.592 80.2608 48.184 81.2208 47.416C82.1808 46.648 83.7168 46.264 85.8288 46.264C89.0928 46.264 90.7248 47.352 90.7248 49.528C90.7248 51.128 90.1168 54.84 88.9008 60.664C87.3648 67.704 86.5968 72.472 86.5968 74.968C86.5968 76.888 86.8528 78.36 87.3648 79.384C87.8768 80.408 88.7408 80.92 89.9568 80.92C91.1088 80.92 92.5488 80.12 94.2768 78.52C96.0048 76.92 98.3088 74.392 101.189 70.936C101.957 70.04 102.821 69.592 103.781 69.592C104.613 69.592 105.253 69.976 105.701 70.744C106.213 71.512 106.469 72.568 106.469 73.912C106.469 76.472 105.861 78.456 104.645 79.864C98.3088 87.608 92.3888 91.48 86.8848 91.48ZM105.518 91.48C103.086 91.48 101.358 90.2 100.334 87.64C99.3738 85.08 98.8938 80.984 98.8938 75.352C98.8938 67.032 100.078 59.128 102.446 51.64C103.022 49.784 103.95 48.44 105.23 47.608C106.574 46.712 108.43 46.264 110.798 46.264C112.078 46.264 112.974 46.424 113.486 46.744C113.998 47.064 114.254 47.672 114.254 48.568C114.254 49.592 113.774 51.896 112.814 55.48C112.174 58.04 111.662 60.28 111.278 62.2C110.894 64.12 110.574 66.488 110.318 69.304C112.43 63.8 114.798 59.32 117.422 55.864C120.046 52.408 122.606 49.944 125.102 48.472C127.662 47 129.998 46.264 132.11 46.264C136.27 46.264 138.35 48.344 138.35 52.504C138.35 53.336 138.062 55.352 137.486 58.552C136.974 61.112 136.718 62.712 136.718 63.352C136.718 65.592 137.518 66.712 139.118 66.712C140.91 66.712 143.214 65.304 146.03 62.488C146.862 61.656 147.726 61.24 148.622 61.24C149.454 61.24 150.094 61.624 150.542 62.392C151.054 63.096 151.31 64.056 151.31 65.272C151.31 67.64 150.67 69.496 149.39 70.84C147.598 72.696 145.486 74.296 143.054 75.64C140.686 76.92 138.158 77.56 135.47 77.56C132.078 77.56 129.486 76.696 127.694 74.968C125.966 73.24 125.102 70.904 125.102 67.96C125.102 67 125.198 66.04 125.39 65.08C125.518 63.8 125.582 62.936 125.582 62.488C125.582 61.464 125.23 60.952 124.526 60.952C123.566 60.952 122.286 62.04 120.686 64.216C119.15 66.328 117.614 69.144 116.078 72.664C114.542 76.184 113.294 79.896 112.334 83.8C111.63 86.808 110.798 88.856 109.838 89.944C108.942 90.968 107.502 91.48 105.518 91.48ZM181.269 91.48C173.653 91.48 167.029 90.104 161.397 87.352C155.765 84.536 151.445 80.568 148.437 75.448C145.429 70.328 143.925 64.376 143.925 57.592C143.925 48.184 145.685 39.832 149.205 32.536C152.789 25.24 157.621 19.608 163.701 15.64C169.781 11.608 176.533 9.592 183.957 9.592C190.869 9.592 196.117 11.384 199.701 14.968C203.285 18.488 205.077 23.16 205.077 28.984C205.077 32.888 204.373 36.024 202.965 38.392C201.621 40.76 199.669 41.944 197.109 41.944C195.317 41.944 193.909 41.528 192.885 40.696C191.861 39.864 191.349 38.648 191.349 37.048C191.349 36.472 191.477 35.416 191.733 33.88C192.117 31.96 192.309 30.424 192.309 29.272C192.309 23.448 189.205 20.536 182.997 20.536C178.773 20.536 174.741 21.912 170.901 24.664C167.061 27.416 163.957 31.48 161.589 36.856C159.221 42.168 158.037 48.504 158.037 55.864C158.037 63.544 160.181 69.496 164.469 73.72C168.757 77.88 175.093 79.96 183.477 79.96C187.637 79.96 191.829 79.448 196.053 78.424C200.341 77.336 205.077 75.704 210.261 73.528C211.221 73.144 212.021 72.952 212.661 72.952C213.685 72.952 214.453 73.336 214.965 74.104C215.477 74.872 215.733 75.864 215.733 77.08C215.733 80.984 213.621 83.864 209.397 85.72C204.853 87.704 200.117 89.176 195.189 90.136C190.325 91.032 185.685 91.48 181.269 91.48ZM261.482 69.592C262.314 69.592 262.954 69.976 263.402 70.744C263.914 71.512 264.17 72.568 264.17 73.912C264.17 76.472 263.562 78.456 262.346 79.864C259.402 83.256 256.362 86.04 253.226 88.216C250.154 90.392 246.634 91.48 242.666 91.48C239.402 91.48 236.938 90.552 235.274 88.696C233.61 86.776 232.778 84.024 232.778 80.44C232.778 78.648 233.226 75.448 234.122 70.84C234.954 66.808 235.37 64.024 235.37 62.488C235.37 61.464 235.018 60.952 234.314 60.952C233.482 60.952 232.298 62.04 230.762 64.216C229.226 66.328 227.69 69.144 226.154 72.664C224.618 76.184 223.37 79.896 222.41 83.8C221.194 88.92 218.186 91.48 213.386 91.48C211.466 91.48 210.186 90.808 209.546 89.464C208.97 88.056 208.682 85.56 208.682 81.976C208.682 79.928 208.714 78.296 208.778 77.08L208.874 69.4C208.874 59.544 209.866 49.272 211.85 38.584C213.898 27.896 216.874 18.936 220.778 11.704C224.746 4.408 229.482 0.759995 234.986 0.759995C237.93 0.759995 240.298 2.04 242.09 4.6C243.946 7.09599 244.874 10.36 244.874 14.392C244.874 20.856 242.986 27.576 239.21 34.552C235.434 41.464 229.29 49.56 220.778 58.84C220.586 62.168 220.49 65.592 220.49 69.112C222.602 63.672 224.938 59.256 227.498 55.864C230.122 52.408 232.682 49.944 235.178 48.472C237.738 47 240.074 46.264 242.186 46.264C246.346 46.264 248.426 48.344 248.426 52.504C248.426 55 247.722 59.512 246.314 66.04C245.098 71.608 244.49 75.288 244.49 77.08C244.49 79.64 245.418 80.92 247.274 80.92C248.554 80.92 250.058 80.152 251.786 78.616C253.578 77.016 255.946 74.456 258.89 70.936C259.658 70.04 260.522 69.592 261.482 69.592ZM232.97 10.264C231.818 10.264 230.538 11.928 229.13 15.256C227.722 18.52 226.346 22.968 225.002 28.6C223.722 34.168 222.666 40.248 221.834 46.84C225.802 42.168 229.066 37.08 231.626 31.576C234.25 26.072 235.562 21.08 235.562 16.6C235.562 14.552 235.338 12.984 234.89 11.896C234.442 10.808 233.802 10.264 232.97 10.264ZM299.205 69.592C300.037 69.592 300.677 69.976 301.125 70.744C301.637 71.512 301.893 72.568 301.893 73.912C301.893 76.472 301.285 78.456 300.069 79.864C297.701 82.744 294.341 85.4 289.989 87.832C285.701 90.264 281.093 91.48 276.165 91.48C269.445 91.48 264.229 89.656 260.517 86.008C256.805 82.36 254.949 77.368 254.949 71.032C254.949 66.616 255.877 62.52 257.733 58.744C259.589 54.904 262.149 51.864 265.413 49.624C268.741 47.384 272.485 46.264 276.645 46.264C280.357 46.264 283.333 47.384 285.573 49.624C287.813 51.8 288.933 54.776 288.933 58.552C288.933 62.968 287.333 66.776 284.133 69.976C280.997 73.112 275.653 75.608 268.101 77.464C269.701 80.408 272.741 81.88 277.221 81.88C280.101 81.88 283.365 80.888 287.013 78.904C290.725 76.856 293.925 74.2 296.613 70.936C297.381 70.04 298.245 69.592 299.205 69.592ZM275.013 55.672C272.645 55.672 270.629 57.048 268.965 59.8C267.365 62.552 266.565 65.88 266.565 69.784V69.976C270.341 69.08 273.317 67.736 275.493 65.944C277.669 64.152 278.757 62.072 278.757 59.704C278.757 58.488 278.405 57.528 277.701 56.824C277.061 56.056 276.165 55.672 275.013 55.672ZM312.413 91.48C306.141 91.48 301.245 89.72 297.725 86.2C294.269 82.616 292.541 77.912 292.541 72.088C292.541 66.904 293.565 62.36 295.613 58.456C297.661 54.552 300.317 51.544 303.581 49.432C306.845 47.32 310.269 46.264 313.853 46.264C317.373 46.264 320.093 47.32 322.013 49.432C323.997 51.48 324.989 54.136 324.989 57.4C324.989 60.088 324.381 62.36 323.165 64.216C322.013 66.072 320.477 67 318.557 67C317.341 67 316.349 66.712 315.581 66.136C314.877 65.56 314.525 64.76 314.525 63.736C314.525 63.288 314.589 62.776 314.717 62.2C314.845 61.624 314.941 61.208 315.005 60.952C315.325 59.992 315.485 59.096 315.485 58.264C315.485 57.432 315.261 56.792 314.813 56.344C314.429 55.896 313.853 55.672 313.085 55.672C311.613 55.672 310.237 56.344 308.957 57.688C307.677 58.968 306.653 60.728 305.885 62.968C305.117 65.208 304.733 67.672 304.733 70.36C304.733 77.784 307.965 81.496 314.429 81.496C317.053 81.496 319.869 80.632 322.877 78.904C325.949 77.112 328.957 74.456 331.901 70.936C332.669 70.04 333.533 69.592 334.493 69.592C335.325 69.592 335.965 69.976 336.413 70.744C336.925 71.512 337.181 72.568 337.181 73.912C337.181 76.344 336.573 78.328 335.357 79.864C332.349 83.576 328.733 86.456 324.509 88.504C320.349 90.488 316.317 91.48 312.413 91.48ZM370.221 81.016C372.845 81.528 374.156 82.968 374.156 85.336C374.156 86.936 373.421 88.376 371.949 89.656C370.541 90.872 368.493 91.48 365.805 91.48C361.197 91.48 357.421 90.072 354.477 87.256C351.597 84.376 350.156 80.632 350.156 76.024C350.156 73.528 351.437 71.736 353.997 70.648C356.813 69.432 358.829 68.152 360.045 66.808C361.261 65.4 361.869 63.704 361.869 61.72C361.869 60.568 361.613 59.704 361.101 59.128C360.653 58.552 360.077 58.264 359.373 58.264C357.645 58.264 355.725 59.512 353.613 62.008C351.565 64.504 349.645 67.736 347.853 71.704C346.061 75.608 344.653 79.64 343.629 83.8C342.925 86.808 342.093 88.856 341.133 89.944C340.237 90.968 338.797 91.48 336.812 91.48C334.829 91.48 333.357 90.776 332.397 89.368C331.501 87.896 330.893 85.656 330.573 82.648C330.253 79.64 330.093 75.224 330.093 69.4C330.093 59.544 331.085 49.272 333.069 38.584C335.117 27.896 338.093 18.936 341.997 11.704C345.965 4.408 350.701 0.759995 356.205 0.759995C359.149 0.759995 361.517 2.04 363.309 4.6C365.165 7.09599 366.093 10.36 366.093 14.392C366.093 20.856 364.205 27.576 360.429 34.552C356.653 41.464 350.509 49.56 341.997 58.84C341.805 62.168 341.709 65.592 341.709 69.112C344.781 61.112 348.301 55.32 352.269 51.736C356.237 48.088 359.949 46.264 363.405 46.264C366.605 46.264 369.165 47.352 371.085 49.528C373.069 51.704 374.061 54.392 374.061 57.592C374.061 61.112 373.165 64.344 371.373 67.288C369.581 70.232 366.509 72.856 362.157 75.16C362.541 77.08 363.309 78.424 364.461 79.192C365.677 79.896 367.597 80.504 370.221 81.016ZM354.189 10.264C353.037 10.264 351.757 11.928 350.349 15.256C348.941 18.52 347.565 22.968 346.221 28.6C344.941 34.168 343.885 40.248 343.053 46.84C347.021 42.168 350.285 37.08 352.845 31.576C355.469 26.072 356.781 21.08 356.781 16.6C356.781 14.552 356.557 12.984 356.109 11.896C355.661 10.808 355.021 10.264 354.189 10.264Z" fill="black"/>
</svg>
